<svg xmlns="http://www.w3.org/2000/svg" width="16" height="16" viewBox="0 0 80 80">
    <g fill="#4F4A58" fill-rule="evenodd">
        <path d="M40 7.903c-2.204 0-4 1.774-4 3.95 0 2.178 1.796 3.951 4 3.951 2.204 0 4-1.773 4-3.95 0-2.177-1.796-3.95-4-3.95m0 15.802c-6.616 0-12-5.318-12-11.852C28 5.32 33.384.002 40 .002S52 5.32 52 11.854c0 6.534-5.384 11.852-12 11.852M36 71.113h8V55.311c0-2.181 1.792-3.951 4-3.951h4v-7.901c0-6.535-5.384-11.852-12-11.852s-12 5.317-12 11.852v7.901h4c2.208 0 4 1.77 4 3.95v15.803zm12 7.901H32c-2.208 0-4-1.77-4-3.95V59.26h-4c-2.208 0-4-1.77-4-3.95V43.459c0-10.892 8.972-19.753 20-19.753s20 8.86 20 19.753V55.31c0 2.18-1.792 3.95-4 3.95h-4v15.803c0 2.18-1.792 3.95-4 3.95z"/>
    </g>
</svg>
